<svg width="20" height="20" viewBox="0 0 20 20" fill="none" xmlns="http://www.w3.org/2000/svg">
<path fill-rule="evenodd" clip-rule="evenodd" d="M9.75 0.5C4.36519 0.5 0 4.86523 0 10.25C0 15.6348 4.36519 20 9.75 20C15.1348 20 19.5 15.6348 19.5 10.25C19.5 4.86523 15.1348 0.5 9.75 0.5ZM8.7399 18.5465C6.89002 18.3249 5.17843 17.4968 3.84057 16.159C2.2621 14.5806 1.39285 12.4819 1.39285 10.2496C1.39285 8.24011 2.09767 6.33914 3.38977 4.82812C3.42306 5.22736 3.50523 5.65538 3.48418 5.96133C3.40731 7.07672 3.29724 7.77478 3.95012 8.7158C4.20446 9.08231 4.26695 9.60773 4.39074 10.032C4.51182 10.447 4.99552 10.6647 5.32913 10.9204C6.00221 11.4364 6.64613 12.0362 7.35985 12.4904C7.8309 12.7902 8.12513 12.9393 7.98718 13.5141C7.87623 13.9764 7.84524 14.2612 7.60609 14.673C7.5331 14.7987 7.88157 15.6067 7.99754 15.7226C8.34901 16.074 8.69776 16.3965 9.08087 16.7129C9.67482 17.2036 9.02317 17.8412 8.7399 18.5465ZM15.6594 16.1591C14.4578 17.3606 12.9547 18.1506 11.3208 18.4597C11.5524 17.8871 11.9647 17.3783 12.3472 17.0834C12.6798 16.8267 13.0965 16.333 13.2703 15.9419C13.4439 15.5513 13.6739 15.2128 13.9067 14.8536C14.2379 14.3427 13.0902 13.5722 12.7183 13.4108C11.8814 13.0474 11.2514 12.5572 10.5076 12.0338C9.97767 11.661 8.90179 12.2285 8.30353 11.9674C7.48411 11.6096 6.80901 10.9879 6.09675 10.4515C5.36175 9.89794 5.39728 9.25261 5.39728 8.436C5.973 8.45723 6.792 8.27667 7.17422 8.73966C7.29483 8.88577 7.70953 9.5385 7.98712 9.30656C8.2139 9.11705 7.81908 8.35739 7.74281 8.1788C7.5082 7.62966 8.27737 7.41548 8.67108 7.04311C9.18483 6.5573 10.2869 5.79539 10.1998 5.44716C10.1127 5.09892 9.09708 4.1123 8.50059 4.26623C8.4112 4.2893 7.62417 5.11453 7.47211 5.244C7.47614 4.97466 7.48017 4.70536 7.48429 4.43602C7.48687 4.26595 7.16704 4.09139 7.1819 3.9817C7.2194 3.70448 7.99106 3.20138 8.18301 2.98059C8.04853 2.89655 7.58962 2.50238 7.45073 2.56022C7.11445 2.70038 6.73467 2.79694 6.39839 2.93705C6.39839 2.82042 6.38423 2.71087 6.36736 2.60269C7.04123 2.30433 7.75425 2.09686 8.49126 1.98619L9.15145 2.2515L9.61758 2.80467L10.0828 3.28434L10.4894 3.41536L11.1353 2.80622L10.9687 2.37136V1.98047C12.2461 2.166 13.4524 2.64253 14.5088 3.37734C14.3198 3.39427 14.1121 3.42206 13.8778 3.45187C13.781 3.39469 13.6568 3.36872 13.5513 3.32892C13.8575 3.98714 14.1768 4.63627 14.5012 5.28577C14.8477 5.97956 15.6165 6.72375 15.7515 7.45612C15.9106 8.31938 15.8002 9.1035 15.8872 10.1191C15.9711 11.0972 16.9899 12.2085 16.9899 12.2085C16.9899 12.2085 17.4604 12.3687 17.8517 12.3129C17.487 13.7558 16.7392 15.0792 15.6594 16.1591Z" fill="#2F2F2F"/>
</svg>
