<svg width="16" height="21" viewBox="0 0 16 21" fill="none" xmlns="http://www.w3.org/2000/svg">
<path d="M14.5455 8C14.5455 6.26404 13.8558 4.59918 12.6283 3.37167C11.4008 2.14415 9.73596 1.45455 8 1.45455C6.26404 1.45455 4.59918 2.14415 3.37166 3.37167C2.14415 4.59918 1.45455 6.26404 1.45455 8C1.45455 10.6851 3.60291 14.1847 8 18.3767C12.3971 14.1847 14.5455 10.6851 14.5455 8ZM8 20.3636C2.66618 15.5156 0 11.3935 0 8C0 5.87827 0.842855 3.84344 2.34315 2.34315C3.84344 0.842855 5.87827 0 8 0C10.1217 0 12.1566 0.842855 13.6569 2.34315C15.1571 3.84344 16 5.87827 16 8C16 11.3935 13.3338 15.5156 8 20.3636Z" fill="#000103" fill-opacity="0.7"/>
<path d="M7.99989 10.1818C8.57854 10.1818 9.1335 9.9519 9.54267 9.54273C9.95184 9.13356 10.1817 8.5786 10.1817 7.99995C10.1817 7.4213 9.95184 6.86634 9.54267 6.45717C9.1335 6.048 8.57854 5.81813 7.99989 5.81813C7.42123 5.81813 6.86628 6.048 6.45711 6.45717C6.04794 6.86634 5.81807 7.4213 5.81807 7.99995C5.81807 8.5786 6.04794 9.13356 6.45711 9.54273C6.86628 9.9519 7.42123 10.1818 7.99989 10.1818ZM7.99989 11.6363C7.03547 11.6363 6.11054 11.2532 5.42859 10.5712C4.74664 9.8893 4.36353 8.96437 4.36353 7.99995C4.36353 7.03553 4.74664 6.1106 5.42859 5.42865C6.11054 4.7467 7.03547 4.36359 7.99989 4.36359C8.96431 4.36359 9.88924 4.7467 10.5712 5.42865C11.2531 6.1106 11.6363 7.03553 11.6363 7.99995C11.6363 8.96437 11.2531 9.8893 10.5712 10.5712C9.88924 11.2532 8.96431 11.6363 7.99989 11.6363Z" fill="#000103" fill-opacity="0.7"/>
</svg>
