<svg width="20" height="17" viewBox="0 0 20 17" fill="none" xmlns="http://www.w3.org/2000/svg">
<path d="M3.57156 4.29236C3.57156 3.62929 3.83496 2.99339 4.30382 2.52453C4.77267 2.05567 5.40858 1.79227 6.07165 1.79227C6.73471 1.79227 7.37062 2.05567 7.83947 2.52453C8.30833 2.99339 8.57173 3.62929 8.57173 4.29236C8.57173 4.95542 8.30833 5.59133 7.83947 6.06019C7.37062 6.52905 6.73471 6.79245 6.07165 6.79245C5.40858 6.79245 4.77267 6.52905 4.30382 6.06019C3.83496 5.59133 3.57156 4.95542 3.57156 4.29236ZM6.07165 0.363647C5.02969 0.363647 4.0304 0.777564 3.29363 1.51434C2.55685 2.25112 2.14293 3.2504 2.14293 4.29236C2.14293 5.33432 2.55685 6.3336 3.29363 7.07038C4.0304 7.80715 5.02969 8.22107 6.07165 8.22107C7.1136 8.22107 8.11289 7.80715 8.84966 7.07038C9.58644 6.3336 10.0004 5.33432 10.0004 4.29236C10.0004 3.2504 9.58644 2.25112 8.84966 1.51434C8.11289 0.777564 7.1136 0.363647 6.07165 0.363647ZM13.5719 5.36383C13.5719 4.98493 13.7224 4.62156 13.9903 4.35364C14.2583 4.08572 14.6216 3.9352 15.0005 3.9352C15.3794 3.9352 15.7428 4.08572 16.0107 4.35364C16.2786 4.62156 16.4292 4.98493 16.4292 5.36383C16.4292 5.74272 16.2786 6.1061 16.0107 6.37401C15.7428 6.64193 15.3794 6.79245 15.0005 6.79245C14.6216 6.79245 14.2583 6.64193 13.9903 6.37401C13.7224 6.1061 13.5719 5.74272 13.5719 5.36383ZM15.0005 2.50658C14.2427 2.50658 13.516 2.80761 12.9802 3.34345C12.4443 3.87929 12.1433 4.60604 12.1433 5.36383C12.1433 6.12161 12.4443 6.84837 12.9802 7.3842C13.516 7.92004 14.2427 8.22107 15.0005 8.22107C15.7583 8.22107 16.4851 7.92004 17.0209 7.3842C17.5567 6.84837 17.8578 6.12161 17.8578 5.36383C17.8578 4.60604 17.5567 3.87929 17.0209 3.34345C16.4851 2.80761 15.7583 2.50658 15.0005 2.50658ZM0 11.7926C0 11.2243 0.225773 10.6792 0.627651 10.2773C1.02953 9.87547 1.57459 9.64969 2.14293 9.64969H10.0004C10.5687 9.64969 11.1138 9.87547 11.5156 10.2773C11.9175 10.6792 12.1433 11.2243 12.1433 11.7926V11.9541C12.1419 12.0207 12.1371 12.0872 12.129 12.1534C12.1147 12.2769 12.0883 12.4448 12.0361 12.6434C11.8989 13.1672 11.6561 13.6575 11.3225 14.0841C10.4868 15.157 8.9146 16.0785 6.07165 16.0785C3.22869 16.0785 1.6572 15.157 0.820744 14.0841C0.486953 13.6576 0.243874 13.1673 0.106432 12.6434C0.0518718 12.4332 0.0169585 12.2185 0.00214295 12.0019C0.00145237 11.986 0.000976056 11.97 0.000714259 11.9541V11.9376L0 11.9319V11.7926ZM1.42862 11.9198V11.9283C1.43852 12.0485 1.45884 12.1675 1.48934 12.2841C1.55363 12.5327 1.68435 12.8684 1.94721 13.2062C2.4508 13.852 3.55727 14.6499 6.07165 14.6499C8.58602 14.6499 9.6932 13.852 10.1961 13.207C10.4096 12.9336 10.5652 12.6196 10.6532 12.2841C10.684 12.1675 10.7045 12.0485 10.7147 11.9283L10.7154 11.9198V11.7926C10.7154 11.6032 10.6401 11.4215 10.5062 11.2875C10.3722 11.1536 10.1905 11.0783 10.0011 11.0783H2.14293C1.95349 11.0783 1.7718 11.1536 1.63784 11.2875C1.50388 11.4215 1.42862 11.6032 1.42862 11.7926V11.9198ZM12.484 14.287C13.1483 14.5127 13.9748 14.6499 15.0005 14.6499C17.287 14.6499 18.5864 13.9691 19.2957 13.132C19.6407 12.7248 19.8171 12.3119 19.9064 11.9948C19.9546 11.8247 19.9854 11.6503 19.9986 11.474L19.9993 11.4483L20 11.4326V11.4055C20.0001 11.1749 19.9547 10.9465 19.8665 10.7335C19.7783 10.5204 19.649 10.3268 19.486 10.1637C19.3229 10.0007 19.1293 9.87136 18.9162 9.78315C18.7032 9.69495 18.4748 9.6496 18.2442 9.64969H12.3947C12.7519 10.049 13.0112 10.5376 13.134 11.0783H18.2442C18.4228 11.0783 18.5671 11.2205 18.5714 11.3969C18.5644 11.468 18.551 11.5382 18.5314 11.6069C18.4871 11.7641 18.3957 11.9841 18.2049 12.2091C17.8435 12.6369 16.9999 13.2212 15.0005 13.2212C14.1684 13.2212 13.5369 13.1198 13.0569 12.9712C12.9298 13.435 12.7369 13.8781 12.484 14.287Z" fill="#000103" fill-opacity="0.7"/>
</svg>
