<svg width="20" height="18" viewBox="0 0 20 18" fill="none" xmlns="http://www.w3.org/2000/svg">
<path d="M5 6.33289V3.33289C5 2.80245 5.21071 2.29374 5.58579 1.91867C5.96086 1.5436 6.46957 1.33289 7 1.33289H17C17.5304 1.33289 18.0391 1.5436 18.4142 1.91867C18.7893 2.29374 19 2.80245 19 3.33289V15.3329C19 15.8633 18.7893 16.372 18.4142 16.7471C18.0391 17.1222 17.5304 17.3329 17 17.3329H11M11 17.3329V11.1609C10.9999 10.6305 10.7891 10.1219 10.414 9.74689L7.414 6.74689C7.03894 6.37194 6.53033 6.16131 6 6.16131C5.46967 6.16131 4.96106 6.37194 4.586 6.74689L1.586 9.74689C1.2109 10.1219 1.00011 10.6305 1 11.1609V15.3329C1 15.8633 1.21071 16.372 1.58579 16.7471C1.96086 17.1222 2.46957 17.3329 3 17.3329H6M11 17.3329H6M6 13.3329V17.3329M15.001 5.33289H15M11.001 5.33289H11M15.001 9.33289H15M15.001 13.3329H15" stroke="black" stroke-width="1.2" stroke-linecap="round" stroke-linejoin="round"/>
</svg>
