<svg width="18" height="18" viewBox="0 0 18 18" fill="none" xmlns="http://www.w3.org/2000/svg">
<path d="M9.12843 17.9989C9.61117 17.9983 10.0744 17.808 10.418 17.469L16.8261 11.0509C16.9906 10.8874 17.0931 10.6719 17.1161 10.4411L17.9958 1.09388C18.0093 0.947454 17.9903 0.799861 17.9402 0.661621C17.89 0.523381 17.8101 0.397898 17.7059 0.294116C17.6021 0.189949 17.4766 0.109958 17.3384 0.0598464C17.2001 0.0097344 17.0525 -0.00926534 16.9061 0.0042017L7.55889 0.883941C7.32815 0.906929 7.11257 1.00942 6.94907 1.17385L0.530979 7.58195C0.190945 7.92301 5.10208e-07 8.38497 5.10208e-07 8.86657C5.10208e-07 9.34818 0.190945 9.81013 0.530979 10.1512L7.84881 17.469C8.18882 17.8074 8.64872 17.9978 9.12843 17.9989V17.9989ZM15.1266 9.89127L9.12843 15.8895L2.08052 8.84158L8.07874 2.84336L15.8864 2.11358L15.1266 9.89127Z" fill="#000103" fill-opacity="0.7"/>
<path d="M11.4973 8.00293C10.6689 8.00293 9.99731 7.33136 9.99731 6.50293C9.99731 5.6745 10.6689 5.00293 11.4973 5.00293C12.3257 5.00293 12.9973 5.6745 12.9973 6.50293C12.9973 7.33136 12.3257 8.00293 11.4973 8.00293Z" fill="#000103" fill-opacity="0.7"/>
</svg>
