<svg width="16" height="17" viewBox="0 0 16 17" fill="none" xmlns="http://www.w3.org/2000/svg">
<path d="M3.25 0.931519C2.38805 0.931519 1.5614 1.27393 0.951903 1.88342C0.34241 2.49291 0 3.31957 0 4.18152V7.18152C4.19176e-09 7.38043 0.0790175 7.5712 0.21967 7.71185C0.360322 7.8525 0.551088 7.93152 0.75 7.93152C0.948912 7.93152 1.13968 7.8525 1.28033 7.71185C1.42098 7.5712 1.5 7.38043 1.5 7.18152V4.18152C1.5 3.21552 2.284 2.43152 3.25 2.43152H6.25C6.44891 2.43152 6.63968 2.3525 6.78033 2.21185C6.92098 2.0712 7 1.88043 7 1.68152C7 1.48261 6.92098 1.29184 6.78033 1.15119C6.63968 1.01054 6.44891 0.931519 6.25 0.931519H3.25ZM9.75 0.931519C9.55109 0.931519 9.36032 1.01054 9.21967 1.15119C9.07902 1.29184 9 1.48261 9 1.68152C9 1.88043 9.07902 2.0712 9.21967 2.21185C9.36032 2.3525 9.55109 2.43152 9.75 2.43152H12.75C13.716 2.43152 14.5 3.21552 14.5 4.18152V7.18152C14.5 7.38043 14.579 7.5712 14.7197 7.71185C14.8603 7.8525 15.0511 7.93152 15.25 7.93152C15.4489 7.93152 15.6397 7.8525 15.7803 7.71185C15.921 7.5712 16 7.38043 16 7.18152V4.18152C16 3.31957 15.6576 2.49291 15.0481 1.88342C14.4386 1.27393 13.612 0.931519 12.75 0.931519H9.75ZM0.75 9.93152C0.948912 9.93152 1.13968 10.0105 1.28033 10.1512C1.42098 10.2918 1.5 10.4826 1.5 10.6815V13.6815C1.5 14.6475 2.284 15.4315 3.25 15.4315H6.25C6.44891 15.4315 6.63968 15.5105 6.78033 15.6512C6.92098 15.7918 7 15.9826 7 16.1815C7 16.3804 6.92098 16.5712 6.78033 16.7119C6.63968 16.8525 6.44891 16.9315 6.25 16.9315H3.25C2.38805 16.9315 1.5614 16.5891 0.951903 15.9796C0.34241 15.3701 0 14.5435 0 13.6815V10.6815C0 10.4826 0.0790175 10.2918 0.21967 10.1512C0.360322 10.0105 0.551088 9.93152 0.75 9.93152ZM16 10.6815C16 10.4826 15.921 10.2918 15.7803 10.1512C15.6397 10.0105 15.4489 9.93152 15.25 9.93152C15.0511 9.93152 14.8603 10.0105 14.7197 10.1512C14.579 10.2918 14.5 10.4826 14.5 10.6815V13.6815C14.5 14.1456 14.3156 14.5908 13.9874 14.919C13.6592 15.2471 13.2141 15.4315 12.75 15.4315H9.75C9.55109 15.4315 9.36032 15.5105 9.21967 15.6512C9.07902 15.7918 9 15.9826 9 16.1815C9 16.3804 9.07902 16.5712 9.21967 16.7119C9.36032 16.8525 9.55109 16.9315 9.75 16.9315H12.75C13.612 16.9315 14.4386 16.5891 15.0481 15.9796C15.6576 15.3701 16 14.5435 16 13.6815V10.6815Z" fill="#000103" fill-opacity="0.7"/>
</svg>
