<svg width="20" height="16" viewBox="0 0 20 16" fill="none" xmlns="http://www.w3.org/2000/svg">
<path fill-rule="evenodd" clip-rule="evenodd" d="M20 1.89583C19.2626 2.21667 18.4743 2.43333 17.6436 2.53333C18.4912 2.03333 19.1439 1.24167 19.449 0.3C18.6565 0.7625 17.7792 1.1 16.8426 1.27917C16.0924 0.491667 15.0244 0 13.8462 0C11.5787 0 9.74359 1.80833 9.74359 4.0375C9.74359 4.35417 9.7775 4.6625 9.84954 4.95833C6.4378 4.79167 3.41174 3.18333 1.39013 0.7375C1.03836 1.33333 0.834923 2.02917 0.834923 2.76667C0.834923 4.16667 1.56389 5.40417 2.66582 6.12917C1.98771 6.1125 1.35198 5.92917 0.801017 5.625C0.801017 5.64167 0.801017 5.65833 0.801017 5.675C0.801017 7.63333 2.21657 9.2625 4.09409 9.63333C3.75079 9.725 3.38631 9.775 3.01335 9.775C2.75058 9.775 2.49205 9.75 2.242 9.7C2.7633 11.3042 4.28057 12.4708 6.07756 12.5042C4.67472 13.5875 2.90316 14.2333 0.979021 14.2333C0.648442 14.2333 0.322102 14.2125 0 14.175C1.80971 15.3333 3.96694 16 6.28099 16C13.8377 16 17.9657 9.84583 17.9657 4.50833C17.9657 4.33333 17.9614 4.15833 17.953 3.9875C18.754 3.41667 19.449 2.70833 20 1.89583V1.89583Z" fill="white"/>
</svg>
