<svg width="17" height="17" viewBox="0 0 17 17" fill="none" xmlns="http://www.w3.org/2000/svg">
<circle cx="8.25" cy="9" r="3.5" fill="white"/>
<path fill-rule="evenodd" clip-rule="evenodd" d="M5.12741 5.33807C6.03401 4.43147 7.23937 3.92683 8.52148 3.92683C9.8036 3.92683 11.009 4.43413 11.9156 5.34073C12.4908 5.91596 12.9017 6.6072 13.1255 7.37863H16.7286V2.53577C16.7286 1.39963 15.8505 0.521484 14.7143 0.521484H2.37148C1.23534 0.521484 0.271484 1.39963 0.271484 2.53577V7.37863H3.91743C4.14123 6.6072 4.55218 5.9133 5.12741 5.33807ZM15.3572 4.08686C15.3572 4.38982 15.1116 4.63544 14.8086 4.63544H13.1629C12.8599 4.63544 12.6143 4.38986 12.6143 4.08686V2.44115C12.6143 2.13819 12.8599 1.89258 13.1629 1.89258H14.8086C15.1116 1.89258 15.3572 2.13815 15.3572 2.44115V4.08686Z" fill="white"/>
<path fill-rule="evenodd" clip-rule="evenodd" d="M11.9156 12.1262C11.009 13.0328 9.8036 13.5268 8.52148 13.5268C7.23937 13.5268 6.03401 13.0355 5.12741 12.1289C4.22248 11.224 3.72346 9.99286 3.72157 8.75H0.271484V14.8786C0.271484 16.0147 1.23534 16.9786 2.37148 16.9786H14.7143C15.8505 16.9786 16.7286 16.0147 16.7286 14.8786V8.75H13.3214C13.3196 9.99286 12.8205 11.2213 11.9156 12.1262V12.1262Z" fill="white"/>
</svg>
