<svg width="19" height="18" viewBox="0 0 19 18" fill="none" xmlns="http://www.w3.org/2000/svg">
<path fill-rule="evenodd" clip-rule="evenodd" d="M17.0605 0H2.0379C1.21737 0 0.5 0.590779 0.5 1.40193V16.4574C0.5 17.2732 1.21737 18 2.0379 18H17.0558C17.8811 18 18.5 17.2686 18.5 16.4574V1.40193C18.5047 0.590779 17.8811 0 17.0605 0ZM6.07957 15.0039H3.50078V6.98619H6.07957V15.0039ZM4.87926 5.76713H4.8605C4.03529 5.76713 3.50078 5.1529 3.50078 4.38395C3.50078 3.60094 4.04936 3.00078 4.89333 3.00078C5.73729 3.00078 6.25305 3.59625 6.27181 4.38395C6.27181 5.1529 5.73729 5.76713 4.87926 5.76713ZM15.5039 15.0039H12.9251V10.62C12.9251 9.56968 12.55 8.85231 11.6169 8.85231C10.9043 8.85231 10.4823 9.33524 10.2947 9.80412C10.2244 9.97291 10.2056 10.2027 10.2056 10.4371V15.0039H7.62685V6.98619H10.2056V8.10211C10.5807 7.5676 11.1668 6.79865 12.5312 6.79865C14.2239 6.79865 15.5039 7.91456 15.5039 10.3199V15.0039Z" fill="white"/>
</svg>
