<svg width="30" height="28" viewBox="0 0 30 28" fill="none" xmlns="http://www.w3.org/2000/svg">
<path d="M0 1.71875C0 0.769511 0.769511 0 1.71875 0H28.2812C29.2305 0 30 0.769511 30 1.71875C30 2.66799 29.2305 3.4375 28.2812 3.4375H1.71875C0.769511 3.4375 0 2.66799 0 1.71875ZM5.04545 4.8125C3.3886 4.8125 2.04545 6.15565 2.04545 7.8125V24.5C2.04545 26.1569 3.3886 27.5 5.04545 27.5H24.9545C26.6114 27.5 27.9545 26.1569 27.9545 24.5V7.8125C27.9545 6.15565 26.6114 4.8125 24.9545 4.8125H5.04545ZM19.7727 9.96875C19.7727 10.5383 19.311 11 18.7415 11H10.5767C10.0072 11 9.54545 10.5383 9.54545 9.96875C9.54545 9.39921 10.0072 8.9375 10.5767 8.9375H18.7415C19.311 8.9375 19.7727 9.39921 19.7727 9.96875Z" fill="#FFCE31"/>
</svg>
